# xmcd CD database file
#
# Track frame offsets:
#	150
#	15794
#	35707
#	50081
#	70679
#	88240
#	102597
#	118693
#	138168
#	160284
#	179644
#
# Disc length: 2590 seconds
#
# Revision: 0
# Processed by: cddbd v1.5.2PL0 Copyright (c) Steve Scherf et al.
# Submitted via: CDex 1.51
#
DISCID=970a1c0b
DTITLE=Burhan G - Breakout
DYEAR=2007
DGENRE=Rhythmic Soul
TTITLE0=Breakout
TTITLE1=Who is he
TTITLE2=Can't let u go
TTITLE3=Sacrifice
TTITLE4=Live ur life
TTITLE5=This is our world
TTITLE6=Thank u
TTITLE7=Home
TTITLE8=Bittersweet
TTITLE9=A song for her
TTITLE10=Fly away
EXTD=YEAR: 2007
EXTT0=
EXTT1=
EXTT2=
EXTT3=
EXTT4=
EXTT5=
EXTT6=
EXTT7=
EXTT8=
EXTT9=
EXTT10=
PLAYORDER=
